<svg id="svg" version="1.1" xmlns="http://www.w3.org/2000/svg" xmlns:xlink="http://www.w3.org/1999/xlink" width="400" height="400" viewBox="0, 0, 400,400"><g id="svgg"><path id="path0" d="M165.185 196.481 L 165.185 247.786 180.648 247.689 L 196.111 247.593 196.111 196.481 L 196.111 145.370 180.648 145.274 L 165.185 145.177 165.185 196.481 M70.741 199.278 L 70.741 247.815 99.907 247.684 C 134.177 247.530,135.490 247.400,142.529 243.470 C 152.906 237.676,157.580 229.588,157.588 217.407 C 157.595 207.324,154.968 202.096,147.870 198.069 C 145.506 196.728,145.437 197.181,148.466 194.152 C 158.576 184.042,156.628 165.076,144.630 156.797 C 136.469 151.167,133.184 150.741,97.950 150.741 L 70.741 150.741 70.741 199.278 M118.955 173.995 C 123.438 176.783,122.427 185.649,117.470 187.026 C 116.722 187.233,112.986 187.404,109.167 187.405 L 102.222 187.407 102.222 180.158 L 102.222 172.909 109.907 173.029 C 117.161 173.141,117.669 173.196,118.955 173.995 M235.370 180.172 C 215.999 184.100,204.619 195.453,203.480 211.986 C 201.983 233.714,218.632 248.838,244.815 249.534 C 271.270 250.236,289.259 235.941,289.259 214.215 C 289.259 190.379,263.934 174.380,235.370 180.172 M319.815 180.170 C 296.231 185.637,285.984 213.488,299.575 235.185 C 308.383 249.249,332.965 254.225,346.963 244.779 C 349.327 243.183,349.386 243.245,349.168 247.130 C 348.738 254.813,345.321 258.535,337.665 259.659 C 331.367 260.583,317.940 258.879,311.200 256.301 C 307.883 255.032,308.123 254.309,308.235 265.223 L 308.333 274.889 310.185 275.595 C 324.721 281.136,348.157 280.687,361.045 274.621 C 371.067 269.904,377.099 262.038,379.418 250.664 C 379.922 248.193,380.000 243.317,380.000 214.460 L 380.000 181.111 365.185 181.111 L 350.370 181.111 350.370 183.642 C 350.370 186.799,350.235 186.926,348.479 185.423 C 342.295 180.129,329.837 177.846,319.815 180.170 M248.830 203.350 C 256.403 204.579,260.053 213.122,256.193 220.583 C 252.207 228.288,238.450 227.047,235.689 218.734 C 232.974 210.558,237.290 204.046,246.111 203.012 C 246.315 202.988,247.538 203.140,248.830 203.350 M342.467 203.726 C 347.692 205.713,349.259 208.195,349.259 214.485 C 349.259 222.538,346.223 225.370,337.593 225.370 C 329.801 225.370,325.926 221.687,325.926 214.282 C 325.926 205.959,334.293 200.619,342.467 203.726 M119.068 209.422 C 126.458 211.160,126.798 223.295,119.507 225.131 C 118.504 225.383,114.659 225.556,110.021 225.556 L 102.222 225.556 102.222 217.469 C 102.222 213.022,102.333 209.272,102.469 209.136 C 102.961 208.644,116.771 208.881,119.068 209.422 " stroke="none" fill="#443ccc" fill-rule="evenodd"></path><path id="path1" d="M164.444 196.296 C 164.444 230.370,164.570 247.778,164.815 247.778 C 165.060 247.778,165.185 230.431,165.185 196.477 L 165.185 145.177 180.648 145.274 L 196.111 145.370 196.111 196.574 C 196.111 224.736,196.236 247.778,196.389 247.778 C 196.542 247.778,196.667 224.611,196.667 196.296 L 196.667 144.815 180.556 144.815 L 164.444 144.815 164.444 196.296 M70.462 198.975 L 70.553 247.963 70.648 199.352 L 70.743 150.741 97.952 150.741 C 133.184 150.741,136.469 151.167,144.630 156.797 C 156.628 165.076,158.576 184.042,148.466 194.152 C 145.437 197.181,145.506 196.728,147.870 198.069 C 154.968 202.096,157.595 207.324,157.588 217.407 C 157.577 233.491,147.302 245.058,131.296 247.004 C 126.123 247.633,125.811 247.752,129.789 247.579 C 133.850 247.402,137.778 246.748,137.778 246.248 C 137.778 246.071,138.069 245.926,138.426 245.926 C 138.997 245.926,143.589 243.818,144.074 243.333 C 144.176 243.231,144.824 242.833,145.514 242.449 C 146.968 241.639,147.438 241.245,150.085 238.617 C 153.823 234.907,156.153 231.090,157.043 227.222 C 157.278 226.204,157.664 224.970,157.901 224.481 C 158.476 223.296,158.502 210.454,157.930 210.079 C 157.709 209.934,157.324 208.995,157.076 207.993 C 156.077 203.961,151.685 198.921,147.783 197.329 L 146.565 196.832 147.917 195.801 C 149.262 194.775,152.222 191.083,152.222 190.432 C 152.222 190.244,152.445 189.906,152.718 189.679 C 152.990 189.453,153.424 188.558,153.682 187.690 C 153.940 186.821,154.291 185.939,154.462 185.728 C 155.815 184.062,155.774 169.443,154.415 168.951 C 154.227 168.883,154.074 168.589,154.074 168.298 C 154.074 167.514,151.460 162.222,151.073 162.222 C 150.890 162.222,150.740 162.014,150.739 161.759 C 150.738 161.505,149.752 160.380,148.547 159.259 C 145.040 155.997,144.598 155.674,142.130 154.578 C 141.366 154.239,140.741 153.845,140.741 153.702 C 140.741 153.560,139.616 153.145,138.241 152.780 C 136.866 152.415,135.565 151.980,135.350 151.814 C 133.707 150.540,126.676 150.213,98.426 150.099 L 70.370 149.986 70.462 198.975 M102.222 180.158 L 102.222 187.407 109.167 187.405 C 119.656 187.402,121.842 186.066,121.850 179.654 C 121.856 174.334,119.780 173.182,109.907 173.029 L 102.222 172.909 102.222 180.158 M116.332 173.746 C 118.146 174.135,118.817 174.614,120.684 176.855 C 121.284 177.574,121.356 182.700,120.777 183.414 C 118.181 186.612,117.937 186.690,109.722 186.941 L 102.963 187.147 102.963 180.240 L 102.963 173.333 108.685 173.333 C 111.833 173.333,115.274 173.519,116.332 173.746 M238.889 178.752 C 238.176 178.840,237.259 179.054,236.852 179.228 C 236.444 179.401,234.778 179.746,233.148 179.994 C 231.519 180.241,230.019 180.572,229.815 180.730 C 229.611 180.887,228.569 181.235,227.500 181.504 C 226.431 181.772,225.556 182.127,225.556 182.292 C 225.556 182.457,225.236 182.593,224.846 182.593 C 224.043 182.593,219.140 185.091,218.951 185.597 C 218.883 185.778,218.601 185.926,218.323 185.926 C 218.046 185.926,217.602 186.218,217.336 186.574 C 217.070 186.931,216.352 187.472,215.741 187.778 C 213.731 188.783,207.778 195.384,207.778 196.608 C 207.778 196.844,207.636 197.037,207.464 197.037 C 207.291 197.037,206.837 197.745,206.455 198.611 C 206.074 199.477,205.657 200.269,205.530 200.370 C 205.403 200.472,205.177 201.056,205.028 201.667 C 204.880 202.278,204.538 203.278,204.269 203.889 C 202.483 207.951,202.498 221.077,204.293 225.063 C 204.584 225.709,204.924 226.750,205.050 227.378 C 205.175 228.005,205.390 228.519,205.527 228.519 C 205.665 228.519,205.986 229.097,206.242 229.804 C 207.147 232.306,213.900 240.741,214.999 240.741 C 215.145 240.741,215.895 241.241,216.667 241.852 C 217.438 242.463,218.254 242.963,218.479 242.963 C 218.705 242.963,218.889 243.117,218.889 243.305 C 218.889 243.493,219.514 243.850,220.278 244.099 C 221.042 244.348,221.750 244.667,221.852 244.807 C 222.236 245.336,226.338 247.059,228.223 247.484 C 229.302 247.727,230.269 248.031,230.370 248.160 C 230.625 248.482,234.675 249.259,236.099 249.259 C 236.737 249.259,237.456 249.456,237.697 249.697 C 238.276 250.276,254.054 250.311,255.270 249.736 C 255.732 249.517,257.430 249.151,259.041 248.924 C 260.653 248.696,262.153 248.373,262.375 248.205 C 262.596 248.037,263.903 247.604,265.278 247.242 C 266.653 246.880,267.778 246.471,267.778 246.332 C 267.778 246.193,268.528 245.879,269.444 245.634 C 270.361 245.389,271.111 245.021,271.111 244.816 C 271.111 244.612,271.316 244.444,271.567 244.444 C 271.985 244.444,275.827 242.217,276.970 241.312 C 278.162 240.368,282.964 235.557,282.978 235.293 C 282.986 235.132,283.486 234.423,284.089 233.718 C 284.692 233.012,285.185 232.235,285.185 231.989 C 285.185 231.744,285.312 231.488,285.466 231.420 C 286.013 231.180,287.677 227.519,288.143 225.532 C 288.403 224.425,288.754 223.342,288.924 223.127 C 289.983 221.780,290.000 207.203,288.945 205.762 C 288.787 205.547,288.437 204.467,288.167 203.363 C 287.679 201.365,286.002 197.704,285.466 197.469 C 285.312 197.401,285.184 197.151,285.183 196.914 C 285.180 196.361,281.797 192.142,279.632 189.991 C 276.662 187.041,269.440 182.593,267.622 182.593 C 267.300 182.593,267.037 182.443,267.037 182.259 C 267.037 182.076,266.162 181.721,265.093 181.470 C 264.023 181.219,262.981 180.886,262.778 180.729 C 262.574 180.572,261.074 180.244,259.444 179.999 C 257.815 179.755,256.148 179.375,255.741 179.154 C 255.002 178.753,241.497 178.431,238.889 178.752 M322.963 178.748 C 322.250 178.838,321.333 179.061,320.926 179.243 C 320.519 179.426,319.060 179.773,317.685 180.015 C 316.310 180.257,315.185 180.602,315.185 180.783 C 315.185 180.963,314.930 181.111,314.619 181.111 C 313.354 181.111,306.457 184.863,305.627 186.002 C 305.361 186.368,304.981 186.667,304.782 186.667 C 304.584 186.667,303.936 187.208,303.343 187.870 C 300.484 191.060,299.628 192.109,299.185 192.963 C 298.921 193.472,298.526 194.006,298.307 194.149 C 298.088 194.291,297.686 195.083,297.413 195.908 C 297.141 196.733,296.800 197.407,296.656 197.407 C 296.511 197.407,296.175 198.199,295.909 199.167 C 295.643 200.134,295.293 201.016,295.132 201.125 C 294.971 201.235,294.650 202.568,294.418 204.088 C 294.186 205.608,293.833 207.163,293.634 207.544 C 293.148 208.473,293.146 219.564,293.631 221.150 C 293.843 221.842,294.209 223.491,294.444 224.815 C 294.679 226.139,295.026 227.381,295.214 227.574 C 295.402 227.768,295.556 228.138,295.556 228.398 C 295.556 229.548,298.054 234.289,300.283 237.370 C 301.714 239.347,305.886 243.260,307.463 244.104 C 307.933 244.356,308.550 244.793,308.833 245.077 C 309.117 245.360,309.828 245.688,310.415 245.805 C 311.002 245.923,311.481 246.142,311.481 246.292 C 311.481 246.705,314.707 247.853,315.457 247.708 C 315.862 247.629,315.424 247.318,314.307 246.891 C 287.170 236.513,286.770 192.952,313.711 182.005 C 325.193 177.340,340.832 178.877,348.479 185.423 C 350.235 186.926,350.370 186.799,350.370 183.642 L 350.370 181.111 365.185 181.111 L 380.000 181.111 380.000 214.460 C 380.000 243.317,379.922 248.193,379.418 250.664 C 376.643 264.275,368.332 273.113,354.732 276.914 C 352.751 277.468,351.188 277.978,351.259 278.049 C 351.505 278.295,356.460 277.365,357.578 276.863 C 358.197 276.585,359.329 276.144,360.093 275.882 C 360.856 275.621,361.481 275.274,361.481 275.111 C 361.481 274.948,361.734 274.815,362.042 274.815 C 362.658 274.815,363.947 274.150,364.734 273.426 C 365.011 273.171,365.403 272.963,365.604 272.963 C 366.665 272.963,373.745 266.159,374.530 264.384 C 374.786 263.806,375.110 263.333,375.250 263.333 C 375.597 263.333,378.148 257.979,378.148 257.251 C 378.148 256.930,378.296 256.667,378.477 256.667 C 378.657 256.667,379.013 255.542,379.266 254.167 C 379.520 252.792,379.914 251.433,380.141 251.147 C 380.438 250.774,380.587 240.687,380.666 215.499 L 380.776 180.370 365.388 180.370 L 350.000 180.370 350.000 182.809 C 350.000 184.627,349.882 185.192,349.537 185.031 C 349.282 184.912,348.782 184.712,348.426 184.587 C 348.069 184.461,347.778 184.217,347.778 184.045 C 347.778 183.873,346.486 183.132,344.907 182.399 C 343.329 181.666,341.787 180.935,341.481 180.775 C 341.176 180.616,340.009 180.271,338.889 180.009 C 337.769 179.747,336.649 179.372,336.402 179.176 C 335.933 178.805,325.222 178.464,322.963 178.748 M257.037 180.162 C 277.389 184.115,289.259 196.659,289.259 214.215 C 289.259 235.941,271.270 250.236,244.815 249.534 C 218.632 248.838,201.983 233.714,203.480 211.986 C 205.047 189.234,229.360 174.787,257.037 180.162 M10.000 181.274 C 10.000 181.772,10.160 182.277,10.355 182.398 C 10.551 182.519,10.998 183.529,11.349 184.642 C 11.700 185.756,12.104 186.667,12.246 186.667 C 12.388 186.667,12.694 187.417,12.924 188.333 C 13.155 189.250,13.490 190.000,13.668 190.000 C 13.846 190.000,14.100 190.578,14.233 191.284 C 14.365 191.991,14.689 192.784,14.952 193.047 C 15.215 193.311,15.546 193.987,15.688 194.551 C 15.829 195.114,16.344 196.448,16.833 197.516 C 17.321 198.583,17.834 199.912,17.974 200.469 C 18.114 201.026,18.351 201.481,18.500 201.481 C 18.649 201.481,18.980 202.178,19.235 203.029 C 19.490 203.880,19.920 204.921,20.190 205.344 C 20.460 205.766,20.867 206.819,21.095 207.685 C 21.323 208.551,21.652 209.259,21.825 209.259 C 21.998 209.259,22.248 209.837,22.381 210.544 C 22.513 211.250,22.833 212.042,23.091 212.303 C 23.350 212.564,23.782 213.569,24.051 214.537 C 24.320 215.505,24.659 216.296,24.804 216.296 C 24.949 216.296,25.277 216.993,25.532 217.844 C 25.787 218.695,26.313 219.984,26.701 220.709 C 27.090 221.433,27.407 222.164,27.407 222.332 C 27.407 222.610,27.978 223.915,30.041 228.358 C 30.426 229.186,30.741 230.107,30.741 230.405 C 30.741 230.703,30.972 231.276,31.255 231.680 C 31.537 232.083,31.980 233.121,32.239 233.985 C 32.498 234.849,32.828 235.556,32.973 235.556 C 33.118 235.556,33.447 236.306,33.704 237.222 C 33.960 238.139,34.315 238.889,34.493 238.889 C 34.670 238.889,34.815 239.131,34.815 239.427 C 34.815 239.904,36.771 244.730,37.863 246.944 L 38.273 247.778 51.544 247.778 L 64.815 247.778 64.815 215.349 C 64.815 193.823,64.690 182.996,64.444 183.148 C 64.241 183.274,64.068 183.659,64.062 184.003 C 64.055 184.348,63.727 185.296,63.333 186.111 C 62.940 186.926,62.612 187.727,62.605 187.891 C 62.598 188.055,62.264 188.911,61.862 189.793 C 61.460 190.676,60.925 192.167,60.674 193.106 C 60.422 194.046,60.101 194.815,59.960 194.815 C 59.819 194.815,59.504 195.648,59.259 196.667 C 59.015 197.685,58.680 198.519,58.516 198.519 C 58.351 198.519,58.003 199.352,57.742 200.370 C 57.481 201.389,57.165 202.222,57.040 202.222 C 56.916 202.222,56.504 203.306,56.125 204.630 C 55.746 205.954,55.328 207.037,55.196 207.037 C 55.063 207.037,54.741 207.871,54.480 208.889 C 53.975 210.861,53.573 211.007,53.162 209.368 C 53.023 208.813,52.588 207.654,52.195 206.792 C 51.803 205.931,51.481 205.055,51.481 204.846 C 51.481 204.637,51.065 203.555,50.556 202.442 C 50.046 201.329,49.630 200.196,49.630 199.926 C 49.630 199.655,49.296 198.812,48.889 198.051 C 48.481 197.291,48.147 196.460,48.146 196.205 C 48.145 195.950,47.913 195.299,47.631 194.758 C 47.349 194.218,46.911 193.134,46.659 192.351 C 46.406 191.567,46.071 190.759,45.913 190.556 C 45.755 190.352,45.349 189.230,45.011 188.062 C 44.673 186.895,44.257 185.854,44.087 185.749 C 43.917 185.644,43.578 184.724,43.334 183.705 C 43.089 182.686,42.739 181.852,42.556 181.852 C 42.372 181.852,42.222 181.519,42.222 181.111 C 42.222 180.382,41.975 180.370,26.111 180.370 L 10.000 180.370 10.000 181.274 M243.881 203.329 C 234.064 204.772,231.593 219.244,240.294 224.342 C 244.072 226.557,250.976 225.903,254.155 223.031 C 261.818 216.108,256.086 201.843,246.111 203.012 C 245.907 203.036,244.904 203.178,243.881 203.329 M334.493 203.341 C 326.375 205.044,323.018 215.279,328.376 221.995 C 332.648 227.348,344.003 226.646,348.323 220.761 C 349.778 218.778,349.754 210.198,348.286 208.080 C 345.687 204.329,339.657 202.257,334.493 203.341 M249.582 204.049 C 250.473 204.221,251.306 204.518,251.434 204.710 C 251.562 204.902,252.198 205.290,252.848 205.573 C 253.497 205.855,254.202 206.467,254.414 206.932 C 254.626 207.397,254.951 207.778,255.136 207.778 C 255.322 207.778,255.695 208.528,255.966 209.444 C 256.237 210.361,256.588 211.111,256.748 211.111 C 256.907 211.111,257.037 212.611,257.037 214.444 C 257.037 216.278,256.911 217.778,256.757 217.778 C 256.603 217.778,256.268 218.446,256.013 219.263 C 255.547 220.755,252.847 223.704,251.946 223.704 C 251.691 223.704,251.481 223.848,251.481 224.023 C 251.481 225.477,243.299 225.354,241.026 223.867 C 240.267 223.370,239.536 222.963,239.402 222.963 C 238.601 222.963,237.341 220.867,235.885 217.112 C 235.469 216.039,235.453 212.117,235.863 211.648 C 236.033 211.455,236.383 210.553,236.642 209.645 C 237.106 208.019,239.632 205.185,240.617 205.185 C 240.855 205.185,241.114 204.992,241.192 204.757 C 241.471 203.921,246.656 203.483,249.582 204.049 M341.463 204.105 C 342.492 204.325,343.333 204.647,343.333 204.821 C 343.333 204.994,343.656 205.238,344.051 205.363 C 344.445 205.488,345.612 206.383,346.643 207.351 L 348.519 209.112 348.519 214.355 L 348.519 219.598 347.055 221.137 C 341.488 226.989,330.326 226.116,327.795 219.630 C 327.516 218.917,327.149 218.175,326.978 217.981 C 326.591 217.544,326.562 210.741,326.947 210.741 C 327.101 210.741,327.445 210.041,327.712 209.186 C 329.027 204.973,335.081 202.736,341.463 204.105 M102.469 209.136 C 102.333 209.272,102.222 213.022,102.222 217.469 L 102.222 225.556 110.021 225.556 C 114.659 225.556,118.504 225.383,119.507 225.131 C 126.798 223.295,126.458 211.160,119.068 209.422 C 116.771 208.881,102.961 208.644,102.469 209.136 M117.320 209.609 C 117.674 209.802,118.567 210.056,119.305 210.173 C 121.419 210.509,123.704 212.993,123.704 214.954 C 123.704 215.464,123.870 215.985,124.074 216.111 C 124.278 216.237,124.444 216.747,124.444 217.244 C 124.444 217.741,124.278 218.148,124.074 218.148 C 123.870 218.148,123.704 218.595,123.704 219.140 C 123.704 223.843,120.333 225.176,108.426 225.182 L 102.963 225.185 102.963 217.222 L 102.963 209.259 109.820 209.259 C 113.591 209.259,116.966 209.417,117.320 209.609 M347.801 244.231 C 347.050 245.137,341.433 247.680,338.333 248.519 C 332.383 250.129,323.975 249.896,317.130 247.931 C 316.671 247.799,316.296 247.843,316.296 248.028 C 316.296 248.440,319.238 249.259,320.715 249.259 C 321.306 249.259,321.855 249.455,321.935 249.694 C 322.133 250.287,335.862 250.332,336.228 249.741 C 336.368 249.516,337.315 249.216,338.333 249.075 C 339.352 248.933,340.775 248.521,341.496 248.159 C 342.217 247.797,343.344 247.383,344.000 247.238 C 344.656 247.094,345.402 246.782,345.659 246.544 C 345.915 246.306,346.687 245.796,347.375 245.411 L 348.625 244.710 348.436 248.321 C 348.332 250.307,348.081 252.039,347.877 252.170 C 347.674 252.300,347.396 252.763,347.261 253.198 C 346.663 255.116,343.626 257.457,340.589 258.340 C 336.712 259.467,319.742 258.831,317.160 257.462 C 316.787 257.264,315.523 256.894,314.352 256.640 C 313.181 256.386,312.222 256.067,312.222 255.930 C 312.222 255.679,308.901 254.815,307.935 254.815 C 307.491 254.815,307.407 256.456,307.407 265.145 L 307.407 275.475 308.426 275.729 C 308.986 275.869,309.944 276.199,310.556 276.464 C 311.936 277.060,314.115 277.635,316.296 277.977 C 317.213 278.121,318.046 278.366,318.148 278.522 C 318.396 278.900,325.412 279.644,328.070 279.574 C 329.233 279.544,329.685 279.463,329.074 279.396 C 328.463 279.329,326.296 279.091,324.259 278.868 C 320.369 278.442,313.324 276.807,310.185 275.601 L 308.333 274.889 308.235 265.223 C 308.123 254.309,307.883 255.032,311.200 256.301 C 316.201 258.214,322.497 259.329,331.111 259.826 C 340.276 260.354,346.195 257.853,348.194 252.608 C 349.814 248.358,349.523 242.156,347.801 244.231 M344.259 278.889 C 341.320 279.280,340.094 279.549,341.111 279.580 C 343.564 279.655,350.741 278.818,350.741 278.458 C 350.741 278.066,350.148 278.105,344.259 278.889 M330.741 280.000 C 330.741 280.223,332.277 280.370,334.608 280.370 C 336.786 280.370,338.575 280.209,338.704 280.000 C 338.851 279.762,337.473 279.630,334.837 279.630 C 332.353 279.630,330.741 279.775,330.741 280.000 " stroke="none" fill="#424244" fill-rule="evenodd"></path></g></svg>